<svg xmlns="http://www.w3.org/2000/svg" style="display:none">
    <symbol id="home" viewBox="0 0 24 24">
        <path d="M3 10l9-7 9 7"/>
        <path d="M5 10v10h14V10"/>
        <path d="M10 20v-6h4v6"/>
    </symbol>

    <symbol id="users" viewBox="0 0 24 24" fill="none">
        <g id="User / Users">
            <path id="Vector"
                  d="M21 19.9999C21 18.2583 19.3304 16.7767 17 16.2275M15 20C15 17.7909 12.3137 16 9 16C5.68629 16 3 17.7909 3 20M15 13C17.2091 13 19 11.2091 19 9C19 6.79086 17.2091 5 15 5M9 13C6.79086 13 5 11.2091 5 9C5 6.79086 6.79086 5 9 5C11.2091 5 13 6.79086 13 9C13 11.2091 11.2091 13 9 13Z"
                  stroke="white" stroke-width="2" stroke-linecap="round" stroke-linejoin="round"/>
        </g>
    </symbol>

    <symbol id="logs" viewBox="0 0 24 24">
        <rect x="4" y="4" width="16" height="16" rx="2"/>
        <path d="M8 8h8M8 12h8M8 16h8"/>
    </symbol>

    <symbol id="sun" viewBox="0 0 24 24" fill="none">
        <path d="M12 4V2M12 20V22M6.41421 6.41421L5 5M17.728 17.728L19.1422 19.1422M4 12H2M20 12H22M17.7285 6.41421L19.1427 5M6.4147 17.728L5.00049 19.1422M12 17C9.23858 17 7 14.7614 7 12C7 9.23858 9.23858 7 12 7C14.7614 7 17 9.23858 17 12C17 14.7614 14.7614 17 12 17Z"
              stroke="white" stroke-width="2" stroke-linecap="round" stroke-linejoin="round"/>
    </symbol>

    <symbol viewBox="0 0 24 24" fill="none" xmlns="http://www.w3.org/2000/svg">
        <path d="M9 6C9 10.9706 13.0294 15 18 15C18.9093 15 19.787 14.8655 20.6144 14.6147C19.4943 18.3103 16.0613 20.9999 12 20.9999C7.02944 20.9999 3 16.9707 3 12.0001C3 7.93883 5.69007 4.50583 9.38561 3.38574C9.13484 4.21311 9 5.09074 9 6Z"
              stroke="white" stroke-width="2" stroke-linecap="round" stroke-linejoin="round"/>
    </symbol>

    <symbol id="dashboard" viewBox="0 0 24 24" fill="none" xmlns="http://www.w3.org/2000/svg">
        <path d="M14 15C14 15.5523 14.4477 16 15 16C15.5523 16 16 15.5523 16 15C16 14.4477 15.5523 14 15 14C14.4477 14 14 14.4477 14 15Z" stroke="white" stroke-width="2" stroke-linecap="round" stroke-linejoin="round"/>
        <path d="M8 15C8 15.5523 8.44772 16 9 16C9.55228 16 10 15.5523 10 15C10 14.4477 9.55228 14 9 14C8.44772 14 8 14.4477 8 15Z" stroke="white" stroke-width="2" stroke-linecap="round" stroke-linejoin="round"/>
        <path d="M14 9C14 9.55228 14.4477 10 15 10C15.5523 10 16 9.55228 16 9C16 8.44772 15.5523 8 15 8C14.4477 8 14 8.44772 14 9Z" stroke="white" stroke-width="2" stroke-linecap="round" stroke-linejoin="round"/>
        <path d="M8 9C8 9.55228 8.44772 10 9 10C9.55228 10 10 9.55228 10 9C10 8.44772 9.55228 8 9 8C8.44772 8 8 8.44772 8 9Z" stroke="white" stroke-width="2" stroke-linecap="round" stroke-linejoin="round"/>
    </symbol>



    <symbol id="metrics" viewBox="0 0 24 24">
        <rect x="5" y="10" width="3" height="8" rx="1"/>
        <rect x="10.5" y="6" width="3" height="12" rx="1"/>
        <rect x="16" y="12" width="3" height="6" rx="1"/>
    </symbol>

    <symbol id="config" viewBox="0 0 24 24">
        <line x1="4" y1="6" x2="20" y2="6"/><circle cx="10" cy="6" r="2"/>
        <line x1="4" y1="12" x2="20" y2="12"/><circle cx="14" cy="12" r="2"/>
        <line x1="4" y1="18" x2="20" y2="18"/><circle cx="8" cy="18" r="2"/>
    </symbol>

    <symbol id="clock" viewBox="0 0 24 24">
        <circle cx="12" cy="12" r="9"/>
        <path d="M12 7v6l4 2"/>
    </symbol>

    <symbol id="arrow-up-right" viewBox="0 0 24 24">
        <path d="M7 17L17 7M9 7h8v8"/>
    </symbol>

    <symbol id="database" viewBox="0 0 24 24">
        <ellipse cx="12" cy="5" rx="7" ry="3"/>
        <path d="M5 5v10c0 1.7 3.1 3 7 3s7-1.3 7-3V5"/>
        <path d="M5 10c0 1.7 3.1 3 7 3s7-1.3 7-3"/>
    </symbol>

    <symbol id="doc" viewBox="0 0 24 24">
        <path d="M6 3h8l4 4v14H6z"/>
        <path d="M14 3v4h4"/>
    </symbol>

    <symbol id="trash" viewBox="0 0 24 24">
        <path d="M3 6h18M8 6V4h8v2"/>
        <path d="M6 6l1 14h10l1-14"/>
        <path d="M10 10v8M14 10v8"/>
    </symbol>

    <symbol id="refresh" viewBox="0 0 24 24">
        <path d="M20 11a8 8 0 1 0 2.3 5.7"/>
        <path d="M20 4v7h-7"/>
    </symbol>
</svg>
